<?xml version="1.0" encoding="UTF-8"?>
<svg id="Capa_2" data-name="Capa 2" xmlns="http://www.w3.org/2000/svg" xmlns:xlink="http://www.w3.org/1999/xlink" viewBox="0 0 729.52 251.77">
  <defs>
    <style>
      .cls-1 {
        clip-path: url(#clippath-2);
      }

      .cls-2 {
        fill: #5cd4a4;
      }

      .cls-3 {
        clip-path: url(#clippath-1);
      }

      .cls-4 {
        clip-rule: evenodd;
      }

      .cls-4, .cls-5, .cls-6 {
        fill: #4ba3c3;
      }

      .cls-7 {
        clip-path: url(#clippath);
      }

      .cls-6 {
        fill-rule: evenodd;
      }
    </style>
    <clipPath id="clippath">
      <path class="cls-4" d="m76.57,110.36c17.33-.11,33.44-6.24,50.55-17.34l68.35-44.39,3.23-2.1c5.76-4.43,9.28-11.29,9.42-18.7V0l-99.48,64.56c-11.74,7.63-22.11,11.83-32.2,11.89-10.23.07-21.36-4.01-34.73-12.95L.04,35.67l-.04,27.8c.14,7.41,3.65,14.26,9.42,18.7,22.01,14.3,39.35,28.37,67.15,28.19"/>
    </clipPath>
    <clipPath id="clippath-1">
      <path class="cls-4" d="m76.57,181.06c17.33-.11,33.44-6.24,50.55-17.34l68.35-44.39,3.23-2.1c5.76-4.43,9.28-11.29,9.42-18.7v-27.83l-99.48,64.56c-11.74,7.63-22.11,11.83-32.2,11.89-10.23.07-21.36-4.01-34.73-12.95L.04,106.37l-.04,27.8c.14,7.41,3.65,14.26,9.42,18.7l3.23,2.1,24.47,15.89c13.73,7.03,26.61,10.29,39.45,10.2"/>
    </clipPath>
    <clipPath id="clippath-2">
      <path class="cls-4" d="m76.57,251.77c17.33-.11,33.44-6.24,50.55-17.34l68.35-44.39,3.23-2.1c5.76-4.43,9.28-11.29,9.42-18.7v-27.83l-99.48,64.56c-11.74,7.63-22.11,11.83-32.2,11.89-10.23.07-21.36-4.01-34.73-12.95L.04,177.08l-.04,27.8c.14,7.41,3.65,14.26,9.42,18.7l3.23,2.1,24.47,15.89c13.73,7.03,26.61,10.29,39.45,10.2"/>
    </clipPath>
  </defs>
  <g id="Capa_1-2" data-name="Capa 1">
    <g>
      <g>
        <path class="cls-6" d="m76.57,110.36c17.33-.11,33.44-6.24,50.55-17.34l68.35-44.39,3.23-2.1c5.76-4.43,9.28-11.29,9.42-18.7V0l-99.48,64.56c-11.74,7.63-22.11,11.83-32.2,11.89-10.23.07-21.36-4.01-34.73-12.95L.04,35.67l-.04,27.8c.14,7.41,3.65,14.26,9.42,18.7,22.01,14.3,39.35,28.37,67.15,28.19"/>
        <g class="cls-7">
          <rect class="cls-5" width="208.12" height="110.54"/>
        </g>
      </g>
      <g>
        <path class="cls-6" d="m76.57,181.06c17.33-.11,33.44-6.24,50.55-17.34l68.35-44.39,3.23-2.1c5.76-4.43,9.28-11.29,9.42-18.7v-27.83l-99.48,64.56c-11.74,7.63-22.11,11.83-32.2,11.89-10.23.07-21.36-4.01-34.73-12.95L.04,106.37l-.04,27.8c.14,7.41,3.65,14.26,9.42,18.7l3.23,2.1,24.47,15.89c13.73,7.03,26.61,10.29,39.45,10.2"/>
        <g class="cls-3">
          <rect class="cls-5" y="70.71" width="208.12" height="110.44"/>
        </g>
      </g>
      <g>
        <path class="cls-6" d="m76.57,251.77c17.33-.11,33.44-6.24,50.55-17.34l68.35-44.39,3.23-2.1c5.76-4.43,9.28-11.29,9.42-18.7v-27.83l-99.48,64.56c-11.74,7.63-22.11,11.83-32.2,11.89-10.23.07-21.36-4.01-34.73-12.95L.04,177.08l-.04,27.8c.14,7.41,3.65,14.26,9.42,18.7l3.23,2.1,24.47,15.89c13.73,7.03,26.61,10.29,39.45,10.2"/>
        <g class="cls-1">
          <rect class="cls-5" y="141.41" width="208.12" height="110.44"/>
        </g>
      </g>
      <g>
        <path class="cls-5" d="m305.79,41.86v15.57h-35.82v20.37h27.43v14.98h-27.43v20.79h35.82v15.57h-56.19V41.86h56.19Z"/>
        <path class="cls-5" d="m360.18,129.13c-1.76,0-3.09-.24-3.98-.72-.9-.48-1.65-1.48-2.25-2.99l-1.32-3.42c-1.56,1.32-3.05,2.48-4.49,3.47-1.44,1-2.93,1.85-4.46,2.55-1.54.7-3.17,1.22-4.91,1.56-1.74.34-3.66.51-5.78.51-2.84,0-5.41-.37-7.73-1.11-2.32-.74-4.28-1.83-5.9-3.27s-2.87-3.23-3.74-5.38c-.88-2.14-1.32-4.62-1.32-7.42,0-2.2.56-4.47,1.68-6.79,1.12-2.32,3.05-4.44,5.81-6.34,2.76-1.9,6.47-3.49,11.14-4.78,4.67-1.28,10.56-1.92,17.67-1.92v-2.66c0-3.67-.75-6.32-2.25-7.95-1.5-1.63-3.62-2.45-6.38-2.45-2.2,0-3.99.24-5.39.72-1.4.48-2.65,1.02-3.74,1.62-1.1.6-2.17,1.14-3.21,1.62-1.04.48-2.28.72-3.71.72-1.28,0-2.37-.31-3.26-.93-.9-.62-1.61-1.39-2.13-2.31l-3.35-5.81c3.75-3.31,7.92-5.78,12.49-7.4,4.57-1.62,9.47-2.43,14.71-2.43,3.75,0,7.14.61,10.15,1.83,3.01,1.22,5.57,2.92,7.67,5.09,2.1,2.18,3.7,4.76,4.82,7.76,1.12,2.99,1.68,6.27,1.68,9.82v38.82h-8.51Zm-21.32-11.32c2.4,0,4.49-.42,6.29-1.26,1.8-.84,3.61-2.2,5.45-4.07v-8.51c-3.71,0-6.77.24-9.17.73-2.4.48-4.29,1.09-5.69,1.81-1.4.73-2.37,1.55-2.91,2.48-.54.93-.81,1.93-.81,3.02,0,2.14.58,3.64,1.74,4.5,1.16.87,2.85,1.3,5.09,1.3Z"/>
        <path class="cls-5" d="m419.84,80.61c-.48.76-.99,1.3-1.53,1.62-.54.32-1.23.48-2.07.48s-1.76-.19-2.64-.57c-.88-.38-1.83-.79-2.85-1.23-1.02-.44-2.17-.85-3.44-1.23-1.28-.38-2.74-.57-4.37-.57-2.36,0-4.16.45-5.42,1.35-1.26.9-1.89,2.15-1.89,3.74,0,1.16.41,2.12,1.23,2.88.82.76,1.91,1.43,3.26,2.01,1.36.58,2.9,1.13,4.61,1.65,1.72.52,3.47,1.1,5.27,1.74,1.8.64,3.55,1.39,5.27,2.25,1.72.86,3.25,1.92,4.61,3.17,1.36,1.26,2.45,2.79,3.26,4.58.82,1.8,1.23,3.95,1.23,6.47,0,3.07-.56,5.91-1.68,8.51-1.12,2.6-2.79,4.83-5,6.71-2.22,1.88-4.95,3.34-8.21,4.37-3.26,1.04-7,1.56-11.23,1.56-2.12,0-4.23-.2-6.35-.6-2.12-.4-4.16-.94-6.14-1.62-1.98-.68-3.8-1.49-5.48-2.43-1.68-.94-3.11-1.95-4.31-3.03l4.31-6.83c.52-.8,1.14-1.43,1.86-1.89.72-.46,1.66-.69,2.82-.69,1.08,0,2.05.24,2.91.72.86.48,1.79,1,2.79,1.56,1,.56,2.17,1.08,3.5,1.56,1.34.48,3.02.72,5.06.72,1.44,0,2.66-.15,3.65-.45,1-.3,1.8-.71,2.4-1.23s1.04-1.1,1.32-1.74c.28-.64.42-1.3.42-1.98,0-1.24-.42-2.25-1.26-3.05s-1.94-1.49-3.29-2.07c-1.36-.58-2.91-1.12-4.64-1.62-1.74-.5-3.5-1.07-5.3-1.71-1.8-.64-3.56-1.41-5.3-2.31-1.74-.9-3.29-2.04-4.64-3.41-1.36-1.38-2.46-3.06-3.29-5.06-.84-2-1.26-4.41-1.26-7.25,0-2.64.51-5.14,1.53-7.52,1.02-2.38,2.55-4.46,4.58-6.26,2.04-1.8,4.59-3.22,7.67-4.28,3.07-1.06,6.67-1.59,10.78-1.59,2.24,0,4.4.2,6.5.6,2.1.4,4.06.96,5.9,1.68,1.84.72,3.51,1.57,5.03,2.55,1.52.98,2.85,2.05,4.01,3.21l-4.19,6.53Z"/>
        <path class="cls-5" d="m459.97,145.25c-.56,1.24-1.24,2.15-2.04,2.73-.8.58-2.08.87-3.83.87h-13.9l11.98-25.16-24.8-56.67h16.41c1.44,0,2.56.32,3.35.96.8.64,1.36,1.4,1.68,2.28l10.18,26.78c.96,2.48,1.74,4.95,2.34,7.43.4-1.28.84-2.54,1.32-3.77.48-1.24.94-2.5,1.38-3.77l9.22-26.66c.32-.92.95-1.69,1.89-2.31.94-.62,1.95-.93,3.03-.93h14.98l-33.19,78.23Z"/>
        <path class="cls-2" d="m557.01,41.86v15.57h-35.82v22.1h29.83v15.63h-29.83v33.96h-20.37V41.86h56.19Z"/>
        <path class="cls-2" d="m610.44,129.13c-1.76,0-3.09-.24-3.98-.72-.9-.48-1.65-1.48-2.25-2.99l-1.32-3.42c-1.56,1.32-3.05,2.48-4.49,3.47-1.44,1-2.93,1.85-4.46,2.55-1.54.7-3.17,1.22-4.91,1.56-1.74.34-3.66.51-5.78.51-2.84,0-5.41-.37-7.73-1.11-2.32-.74-4.28-1.83-5.9-3.27s-2.87-3.23-3.74-5.38c-.88-2.14-1.32-4.62-1.32-7.42,0-2.2.56-4.47,1.68-6.79,1.12-2.32,3.05-4.44,5.81-6.34,2.76-1.9,6.47-3.49,11.14-4.78,4.67-1.28,10.56-1.92,17.67-1.92v-2.66c0-3.67-.75-6.32-2.25-7.95-1.5-1.63-3.62-2.45-6.38-2.45-2.2,0-3.99.24-5.39.72-1.4.48-2.65,1.02-3.74,1.62-1.1.6-2.17,1.14-3.21,1.62-1.04.48-2.28.72-3.71.72-1.28,0-2.37-.31-3.26-.93-.9-.62-1.61-1.39-2.13-2.31l-3.35-5.81c3.75-3.31,7.92-5.78,12.49-7.4,4.57-1.62,9.47-2.43,14.71-2.43,3.75,0,7.14.61,10.15,1.83,3.01,1.22,5.57,2.92,7.67,5.09,2.1,2.18,3.7,4.76,4.82,7.76,1.12,2.99,1.68,6.27,1.68,9.82v38.82h-8.51Zm-21.32-11.32c2.4,0,4.49-.42,6.29-1.26,1.8-.84,3.61-2.2,5.45-4.07v-8.51c-3.71,0-6.77.24-9.17.73-2.4.48-4.29,1.09-5.69,1.81-1.4.73-2.37,1.55-2.91,2.48-.54.93-.81,1.93-.81,3.02,0,2.14.58,3.64,1.74,4.5,1.16.87,2.85,1.3,5.09,1.3Z"/>
        <path class="cls-2" d="m676.93,81.75c-.56.68-1.1,1.22-1.62,1.62-.52.4-1.26.6-2.22.6s-1.75-.22-2.49-.66c-.74-.44-1.57-.93-2.49-1.47-.92-.54-2-1.03-3.23-1.47-1.24-.44-2.78-.66-4.61-.66-2.28,0-4.24.42-5.9,1.26-1.66.84-3.02,2.04-4.1,3.59s-1.88,3.47-2.4,5.72c-.52,2.26-.78,4.8-.78,7.64,0,5.95,1.15,10.52,3.44,13.72,2.3,3.2,5.46,4.79,9.49,4.79,2.16,0,3.86-.27,5.12-.81,1.26-.54,2.33-1.14,3.2-1.8.88-.66,1.69-1.27,2.43-1.83.74-.56,1.67-.84,2.79-.84,1.48,0,2.6.54,3.35,1.62l5.39,6.65c-1.92,2.2-3.93,3.98-6.05,5.36-2.12,1.38-4.28,2.46-6.5,3.23s-4.44,1.32-6.68,1.62c-2.24.3-4.41.45-6.53.45-3.79,0-7.42-.72-10.87-2.16-3.45-1.44-6.49-3.52-9.1-6.26-2.62-2.73-4.69-6.1-6.23-10.09-1.54-3.99-2.31-8.55-2.31-13.66,0-4.47.67-8.66,2.01-12.55,1.34-3.89,3.31-7.27,5.93-10.12,2.61-2.86,5.85-5.1,9.7-6.74,3.85-1.64,8.32-2.46,13.39-2.46s9.14.78,12.82,2.34c3.67,1.56,6.99,3.83,9.94,6.83l-4.91,6.53Z"/>
        <path class="cls-2" d="m712.15,130.09c-2.96,0-5.56-.43-7.82-1.29-2.26-.86-4.15-2.08-5.69-3.65-1.54-1.58-2.71-3.48-3.5-5.72-.8-2.24-1.2-4.73-1.2-7.49v-32.11h-5.27c-.96,0-1.78-.31-2.46-.93-.68-.62-1.02-1.53-1.02-2.73v-7.25l9.88-1.92,3.65-15.16c.48-1.92,1.84-2.88,4.07-2.88h9.7v18.15h15.1v12.7h-15.1v30.85c0,1.44.35,2.63,1.05,3.56.7.94,1.71,1.41,3.03,1.41.68,0,1.25-.07,1.71-.21.46-.14.86-.3,1.2-.48.34-.18.66-.34.96-.48.3-.14.65-.21,1.05-.21.56,0,1.01.13,1.35.39.34.26.69.67,1.05,1.23l5.63,8.81c-2.4,1.8-5.09,3.14-8.09,4.04-3,.9-6.09,1.35-9.29,1.35Z"/>
      </g>
      <g>
        <path class="cls-2" d="m267.67,162.69v1.5h-13.15v10.5h11.38v1.5h-11.38v11.47h-1.82v-24.97h14.97Z"/>
        <path class="cls-2" d="m283.26,187.66c-.35,0-.57-.16-.65-.49l-.25-2.24c-.48.47-.96.89-1.44,1.27-.48.38-.97.7-1.49.95-.52.26-1.08.46-1.68.59-.6.13-1.26.2-1.98.2-.6,0-1.18-.09-1.75-.26-.56-.18-1.07-.45-1.5-.81-.44-.36-.79-.83-1.05-1.4-.26-.57-.4-1.26-.4-2.06,0-.74.21-1.43.64-2.06.42-.64,1.09-1.19,1.99-1.66s2.06-.85,3.48-1.13c1.42-.28,3.12-.45,5.11-.49v-1.84c0-1.62-.35-2.87-1.05-3.75-.7-.88-1.74-1.32-3.12-1.32-.85,0-1.57.12-2.16.35-.59.24-1.1.49-1.51.78-.41.28-.75.54-1.01.78-.26.23-.48.35-.65.35-.24,0-.41-.11-.53-.32l-.3-.51c.92-.92,1.88-1.61,2.89-2.08,1.01-.47,2.16-.71,3.44-.71.94,0,1.76.15,2.47.45.71.3,1.29.73,1.76,1.29.47.56.82,1.24,1.05,2.03.23.79.35,1.68.35,2.66v11.44h-.67Zm-7.06-.93c.68,0,1.31-.07,1.88-.22.57-.15,1.1-.35,1.59-.62.49-.26.94-.58,1.37-.94.42-.36.84-.76,1.25-1.18v-4.57c-1.67.05-3.11.17-4.32.38s-2.2.49-2.98.84c-.78.35-1.36.77-1.73,1.26-.37.49-.56,1.05-.56,1.67,0,.59.1,1.1.29,1.53.19.43.45.78.77,1.06.32.28.69.48,1.11.61.42.13.86.19,1.32.19Z"/>
        <path class="cls-2" d="m300.78,172.45c-.06.06-.12.11-.17.15s-.13.06-.22.06c-.12,0-.28-.08-.49-.24s-.48-.33-.82-.52c-.34-.19-.77-.36-1.28-.52-.51-.16-1.13-.24-1.86-.24-1.01,0-1.91.18-2.69.54-.78.36-1.44.87-1.98,1.54s-.94,1.48-1.23,2.44c-.28.95-.42,2.02-.42,3.21s.14,2.33.43,3.28.7,1.76,1.23,2.41c.53.65,1.17,1.15,1.92,1.49.75.34,1.59.51,2.51.51.85,0,1.56-.1,2.13-.3.57-.2,1.04-.42,1.41-.65.37-.23.66-.45.88-.65.22-.2.39-.3.52-.3.15,0,.27.06.35.18l.46.57c-.27.35-.61.68-1.02.99-.41.31-.88.57-1.39.79-.52.22-1.08.4-1.69.52s-1.24.19-1.9.19c-1.12,0-2.14-.2-3.06-.61-.92-.41-1.72-.99-2.38-1.77-.66-.77-1.18-1.71-1.55-2.83s-.56-2.39-.56-3.81c0-1.34.18-2.56.53-3.67.35-1.11.87-2.06,1.54-2.86.68-.8,1.51-1.42,2.49-1.86.98-.44,2.11-.66,3.38-.66,1.14,0,2.16.18,3.04.55.89.36,1.66.86,2.32,1.48l-.44.6Z"/>
        <path class="cls-2" d="m310.06,187.95c-1.19,0-2.11-.33-2.77-.99s-.99-1.68-.99-3.05v-12h-2.52c-.13,0-.24-.04-.32-.11-.08-.07-.12-.17-.12-.3v-.65l3-.21.42-6.28c.01-.11.06-.2.13-.28.08-.08.18-.12.31-.12h.79v6.71h5.52v1.25h-5.52v11.91c0,.48.06.9.19,1.24.12.35.29.63.51.86.22.22.47.39.77.49.29.11.61.16.95.16.42,0,.79-.06,1.09-.19s.57-.26.79-.41c.22-.15.41-.28.55-.41.14-.12.25-.19.33-.19.09,0,.19.06.28.18l.46.74c-.45.49-1.01.89-1.7,1.19-.69.3-1.4.45-2.14.45Z"/>
        <path class="cls-2" d="m319.1,170.1v11.22c0,1.65.38,2.94,1.13,3.87s1.91,1.4,3.45,1.4c1.14,0,2.21-.29,3.21-.87s1.88-1.39,2.67-2.43v-13.2h1.68v17.56h-.92c-.33,0-.49-.15-.51-.46l-.16-2.61c-.81,1.01-1.75,1.82-2.82,2.44-1.07.61-2.25.92-3.56.92-.98,0-1.83-.15-2.56-.46-.73-.31-1.34-.75-1.82-1.32-.48-.58-.85-1.27-1.1-2.08-.25-.81-.37-1.73-.37-2.75v-11.22h1.68Z"/>
        <path class="cls-2" d="m336.96,187.66v-17.56h.88c.2,0,.34.04.43.12s.14.22.15.42l.14,3.71c.56-1.42,1.32-2.54,2.26-3.34.94-.81,2.1-1.21,3.48-1.21.53,0,1.02.06,1.46.17.45.11.87.27,1.27.49l-.23,1.17c-.04.19-.15.28-.35.28-.07,0-.17-.02-.3-.07s-.29-.1-.49-.16c-.19-.06-.43-.11-.72-.16-.28-.05-.61-.07-.97-.07-1.33,0-2.42.41-3.27,1.24s-1.54,2.01-2.07,3.57v11.42h-1.68Z"/>
        <path class="cls-2" d="m361.3,187.66c-.35,0-.57-.16-.65-.49l-.25-2.24c-.48.47-.96.89-1.44,1.27-.48.38-.97.7-1.49.95-.52.26-1.08.46-1.68.59-.6.13-1.26.2-1.98.2-.6,0-1.18-.09-1.75-.26-.56-.18-1.07-.45-1.5-.81-.44-.36-.79-.83-1.05-1.4-.26-.57-.4-1.26-.4-2.06,0-.74.21-1.43.64-2.06.42-.64,1.09-1.19,1.99-1.66s2.06-.85,3.48-1.13c1.42-.28,3.12-.45,5.11-.49v-1.84c0-1.62-.35-2.87-1.05-3.75-.7-.88-1.74-1.32-3.12-1.32-.85,0-1.57.12-2.16.35-.59.24-1.1.49-1.51.78-.41.28-.75.54-1.01.78-.26.23-.48.35-.65.35-.24,0-.41-.11-.53-.32l-.3-.51c.92-.92,1.88-1.61,2.89-2.08,1.01-.47,2.16-.71,3.44-.71.94,0,1.76.15,2.47.45.71.3,1.29.73,1.76,1.29.47.56.82,1.24,1.05,2.03.23.79.35,1.68.35,2.66v11.44h-.67Zm-7.06-.93c.68,0,1.31-.07,1.88-.22.57-.15,1.1-.35,1.59-.62.49-.26.94-.58,1.37-.94.42-.36.84-.76,1.25-1.18v-4.57c-1.67.05-3.11.17-4.32.38s-2.2.49-2.98.84c-.78.35-1.36.77-1.73,1.26-.37.49-.56,1.05-.56,1.67,0,.59.1,1.1.29,1.53.19.43.45.78.77,1.06.32.28.69.48,1.11.61.42.13.86.19,1.32.19Z"/>
        <path class="cls-2" d="m378.82,172.45c-.06.06-.12.11-.17.15s-.13.06-.22.06c-.12,0-.28-.08-.49-.24s-.48-.33-.82-.52c-.34-.19-.77-.36-1.28-.52-.51-.16-1.13-.24-1.86-.24-1.01,0-1.91.18-2.69.54-.78.36-1.44.87-1.98,1.54s-.94,1.48-1.23,2.44c-.28.95-.42,2.02-.42,3.21s.14,2.33.43,3.28.7,1.76,1.23,2.41c.53.65,1.17,1.15,1.92,1.49.75.34,1.59.51,2.51.51.85,0,1.56-.1,2.13-.3.57-.2,1.04-.42,1.41-.65.37-.23.66-.45.88-.65.22-.2.39-.3.52-.3.15,0,.27.06.35.18l.46.57c-.27.35-.61.68-1.02.99-.41.31-.88.57-1.39.79-.52.22-1.08.4-1.69.52s-1.24.19-1.9.19c-1.12,0-2.14-.2-3.06-.61-.92-.41-1.72-.99-2.38-1.77-.66-.77-1.18-1.71-1.55-2.83s-.56-2.39-.56-3.81c0-1.34.18-2.56.53-3.67.35-1.11.87-2.06,1.54-2.86.68-.8,1.51-1.42,2.49-1.86.98-.44,2.11-.66,3.38-.66,1.14,0,2.16.18,3.04.55.89.36,1.66.86,2.32,1.48l-.44.6Z"/>
        <path class="cls-2" d="m386.24,164.05c0,.21-.04.41-.13.59-.09.18-.2.34-.34.49-.14.14-.31.25-.49.34s-.39.12-.6.12-.41-.04-.6-.12-.35-.19-.49-.34c-.14-.14-.25-.3-.34-.49-.08-.18-.12-.38-.12-.59s.04-.42.12-.61.19-.36.34-.5c.14-.14.31-.25.49-.34s.39-.12.6-.12.41.04.6.12.35.19.49.34c.14.14.26.31.34.5.09.19.13.4.13.61Zm-.74,6.05v17.56h-1.68v-17.56h1.68Z"/>
        <path class="cls-2" d="m398.39,169.82c1.26,0,2.39.22,3.38.64.99.43,1.83,1.04,2.51,1.83s1.2,1.74,1.56,2.85c.36,1.11.54,2.36.54,3.73s-.18,2.62-.54,3.72c-.36,1.11-.88,2.05-1.56,2.84s-1.52,1.39-2.51,1.82-2.12.63-3.38.63-2.39-.21-3.38-.63-1.84-1.03-2.52-1.82-1.21-1.74-1.57-2.84c-.36-1.11-.54-2.35-.54-3.72s.18-2.62.54-3.73c.36-1.11.88-2.06,1.57-2.85s1.53-1.4,2.52-1.83c.99-.43,2.12-.64,3.38-.64Zm0,16.75c1.05,0,1.96-.18,2.74-.54.78-.36,1.44-.87,1.96-1.54.52-.67.91-1.48,1.17-2.43s.39-2.01.39-3.19-.13-2.22-.39-3.18-.65-1.77-1.17-2.44c-.52-.68-1.18-1.2-1.96-1.56-.78-.36-1.7-.55-2.74-.55s-1.96.18-2.74.55-1.44.89-1.96,1.56c-.52.68-.92,1.49-1.18,2.44s-.4,2.01-.4,3.18.13,2.24.4,3.19.66,1.76,1.18,2.43c.52.67,1.18,1.19,1.96,1.54s1.7.54,2.74.54Zm3.99-24.16l-3.81,4.47c-.09.12-.19.2-.29.24s-.22.06-.36.06h-1.01l2.77-4.2c.13-.21.26-.36.41-.44.14-.08.35-.12.64-.12h1.66Z"/>
        <path class="cls-2" d="m410.8,187.66v-17.56h.92c.31,0,.48.15.53.44l.16,2.65c.8-1.01,1.73-1.83,2.8-2.45,1.06-.62,2.25-.93,3.56-.93.96,0,1.81.15,2.55.46.74.31,1.34.75,1.83,1.32s.85,1.27,1.09,2.08.37,1.73.37,2.75v11.23h-1.68v-11.23c0-1.65-.38-2.94-1.13-3.87-.75-.93-1.91-1.4-3.46-1.4-1.15,0-2.22.3-3.21.89-.99.59-1.87,1.41-2.65,2.44v13.17h-1.68Z"/>
        <path class="cls-5" d="m446.38,172.29c-.08.16-.21.25-.39.25-.13,0-.3-.07-.5-.22-.21-.15-.48-.31-.81-.49-.34-.18-.75-.35-1.24-.49-.49-.15-1.09-.22-1.79-.22-.64,0-1.22.09-1.74.27-.52.18-.97.43-1.34.73s-.66.66-.86,1.06c-.21.4-.31.83-.31,1.28,0,.55.14,1.01.42,1.37.28.36.65.67,1.11.93s.98.48,1.56.67,1.18.38,1.79.56,1.21.4,1.79.63c.58.23,1.1.51,1.56.86s.83.76,1.11,1.25c.28.49.42,1.09.42,1.8,0,.77-.14,1.48-.41,2.14-.28.66-.68,1.23-1.2,1.71-.52.48-1.17.86-1.93,1.15-.76.28-1.64.42-2.61.42-1.24,0-2.3-.2-3.19-.59-.89-.39-1.69-.91-2.4-1.54l.41-.6c.06-.09.12-.16.19-.21.07-.05.17-.07.3-.07.15,0,.34.09.56.28.22.19.51.39.87.61.36.22.81.42,1.34.61s1.2.28,1.99.28c.74,0,1.39-.1,1.96-.31.56-.21,1.04-.49,1.41-.84.38-.35.66-.77.86-1.24.19-.48.29-.98.29-1.51,0-.59-.14-1.08-.42-1.46-.28-.39-.65-.72-1.11-.99-.46-.27-.98-.5-1.56-.69-.58-.19-1.18-.38-1.8-.56-.62-.19-1.22-.39-1.8-.62-.58-.22-1.1-.51-1.56-.85-.46-.34-.83-.76-1.11-1.24-.28-.49-.42-1.1-.42-1.83,0-.62.14-1.22.41-1.8.27-.58.66-1.08,1.16-1.52.5-.44,1.11-.78,1.83-1.04s1.52-.39,2.42-.39c1.07,0,2.02.16,2.85.47.83.31,1.59.78,2.29,1.42l-.37.58Z"/>
        <path class="cls-5" d="m454.8,164.05c0,.21-.04.41-.13.59-.09.18-.2.34-.34.49-.14.14-.31.25-.49.34s-.39.12-.6.12-.41-.04-.6-.12-.35-.19-.49-.34c-.14-.14-.25-.3-.34-.49-.08-.18-.12-.38-.12-.59s.04-.42.12-.61.19-.36.34-.5c.14-.14.31-.25.49-.34s.39-.12.6-.12.41.04.6.12.35.19.49.34c.14.14.26.31.34.5.09.19.13.4.13.61Zm-.74,6.05v17.56h-1.68v-17.56h1.68Z"/>
        <path class="cls-5" d="m460.27,187.66v-17.56h.92c.31,0,.48.15.53.44l.16,2.65c.8-1.01,1.73-1.83,2.8-2.45,1.06-.62,2.25-.93,3.56-.93.96,0,1.81.15,2.55.46.74.31,1.34.75,1.83,1.32s.85,1.27,1.09,2.08.37,1.73.37,2.75v11.23h-1.68v-11.23c0-1.65-.38-2.94-1.13-3.87-.75-.93-1.91-1.4-3.46-1.4-1.15,0-2.22.3-3.21.89-.99.59-1.87,1.41-2.65,2.44v13.17h-1.68Z"/>
        <path class="cls-5" d="m497.74,172.45c-.06.06-.12.11-.17.15s-.13.06-.22.06c-.12,0-.28-.08-.49-.24s-.48-.33-.82-.52c-.34-.19-.77-.36-1.28-.52-.51-.16-1.13-.24-1.86-.24-1.01,0-1.91.18-2.69.54-.78.36-1.44.87-1.98,1.54s-.94,1.48-1.23,2.44c-.28.95-.42,2.02-.42,3.21s.14,2.33.43,3.28.7,1.76,1.23,2.41c.53.65,1.17,1.15,1.92,1.49.75.34,1.59.51,2.51.51.85,0,1.56-.1,2.13-.3.57-.2,1.04-.42,1.41-.65.37-.23.66-.45.88-.65.22-.2.39-.3.52-.3.15,0,.27.06.35.18l.46.57c-.27.35-.61.68-1.02.99-.41.31-.88.57-1.39.79-.52.22-1.08.4-1.69.52s-1.24.19-1.9.19c-1.12,0-2.14-.2-3.06-.61-.92-.41-1.72-.99-2.38-1.77-.66-.77-1.18-1.71-1.55-2.83s-.56-2.39-.56-3.81c0-1.34.18-2.56.53-3.67.35-1.11.87-2.06,1.54-2.86.68-.8,1.51-1.42,2.49-1.86.98-.44,2.11-.66,3.38-.66,1.14,0,2.16.18,3.04.55.89.36,1.66.86,2.32,1.48l-.44.6Z"/>
        <path class="cls-5" d="m508.93,169.82c1.26,0,2.39.22,3.38.64.99.43,1.83,1.04,2.51,1.83s1.2,1.74,1.56,2.85c.36,1.11.54,2.36.54,3.73s-.18,2.62-.54,3.72c-.36,1.11-.88,2.05-1.56,2.84s-1.52,1.39-2.51,1.82-2.12.63-3.38.63-2.39-.21-3.38-.63-1.84-1.03-2.52-1.82-1.21-1.74-1.57-2.84c-.36-1.11-.54-2.35-.54-3.72s.18-2.62.54-3.73c.36-1.11.88-2.06,1.57-2.85s1.53-1.4,2.52-1.83c.99-.43,2.12-.64,3.38-.64Zm0,16.75c1.05,0,1.96-.18,2.74-.54.78-.36,1.44-.87,1.96-1.54.52-.67.91-1.48,1.17-2.43s.39-2.01.39-3.19-.13-2.22-.39-3.18-.65-1.77-1.17-2.44c-.52-.68-1.18-1.2-1.96-1.56-.78-.36-1.7-.55-2.74-.55s-1.96.18-2.74.55-1.44.89-1.96,1.56c-.52.68-.92,1.49-1.18,2.44s-.4,2.01-.4,3.18.13,2.24.4,3.19.66,1.76,1.18,2.43c.52.67,1.18,1.19,1.96,1.54s1.7.54,2.74.54Z"/>
        <path class="cls-5" d="m521.34,187.66v-17.56h.92c.31,0,.48.15.53.44l.16,2.54c.34-.48.71-.92,1.09-1.32.39-.4.8-.74,1.24-1.03s.91-.51,1.41-.67c.5-.16,1.03-.24,1.58-.24,1.28,0,2.31.37,3.07,1.12s1.28,1.79,1.55,3.11c.21-.73.51-1.36.89-1.89.38-.53.82-.97,1.31-1.32.49-.35,1.03-.61,1.61-.78s1.18-.26,1.79-.26c.87,0,1.65.14,2.34.43.69.29,1.28.72,1.77,1.28s.86,1.26,1.12,2.08.39,1.76.39,2.82v11.23h-1.68v-11.23c0-1.72-.37-3.03-1.11-3.93s-1.8-1.35-3.18-1.35c-.61,0-1.2.11-1.76.34-.56.22-1.05.56-1.48,1-.43.44-.77.99-1.02,1.65-.25.66-.38,1.42-.38,2.29v11.23h-1.68v-11.23c0-1.71-.34-3.01-1.02-3.92-.68-.91-1.68-1.36-2.98-1.36-.95,0-1.84.29-2.65.86s-1.54,1.36-2.17,2.37v13.27h-1.68Z"/>
        <path class="cls-5" d="m549.41,193.88v-23.77h.92c.15,0,.28.03.37.1.09.06.15.18.16.34l.16,2.72c.78-1.06,1.69-1.9,2.73-2.52,1.04-.62,2.21-.93,3.5-.93,2.16,0,3.85.75,5.05,2.24s1.8,3.73,1.8,6.72c0,1.28-.17,2.48-.5,3.59s-.83,2.08-1.47,2.89c-.65.82-1.44,1.46-2.39,1.93-.95.47-2.04.7-3.27.7s-2.24-.22-3.11-.65c-.87-.43-1.62-1.08-2.26-1.94v8.58h-1.68Zm7.36-22.71c-1.17,0-2.22.3-3.17.91-.95.61-1.79,1.45-2.51,2.53v9.21c.67,1.01,1.41,1.72,2.23,2.14.82.41,1.75.62,2.8.62s1.94-.19,2.72-.56c.78-.38,1.43-.91,1.95-1.6.52-.69.92-1.51,1.18-2.47.26-.96.4-2.02.4-3.17,0-2.61-.48-4.53-1.44-5.76-.96-1.23-2.34-1.84-4.16-1.84Z"/>
        <path class="cls-5" d="m570.47,161.98v25.68h-1.68v-25.68h1.68Z"/>
        <path class="cls-5" d="m579.59,164.05c0,.21-.04.41-.13.59-.09.18-.2.34-.34.49-.14.14-.31.25-.49.34s-.39.12-.6.12-.41-.04-.6-.12-.35-.19-.49-.34c-.14-.14-.25-.3-.34-.49-.08-.18-.12-.38-.12-.59s.04-.42.12-.61.19-.36.34-.5c.14-.14.31-.25.49-.34s.39-.12.6-.12.41.04.6.12.35.19.49.34c.14.14.26.31.34.5.09.19.13.4.13.61Zm-.74,6.05v17.56h-1.68v-17.56h1.68Z"/>
        <path class="cls-5" d="m596.62,172.45c-.06.06-.12.11-.17.15s-.13.06-.22.06c-.12,0-.28-.08-.49-.24s-.48-.33-.82-.52c-.34-.19-.77-.36-1.28-.52-.51-.16-1.13-.24-1.86-.24-1.01,0-1.91.18-2.69.54-.78.36-1.44.87-1.98,1.54s-.94,1.48-1.23,2.44c-.28.95-.42,2.02-.42,3.21s.14,2.33.43,3.28.7,1.76,1.23,2.41c.53.65,1.17,1.15,1.92,1.49.75.34,1.59.51,2.51.51.85,0,1.56-.1,2.13-.3.57-.2,1.04-.42,1.41-.65.37-.23.66-.45.88-.65.22-.2.39-.3.52-.3.15,0,.27.06.35.18l.46.57c-.27.35-.61.68-1.02.99-.41.31-.88.57-1.39.79-.52.22-1.08.4-1.69.52s-1.24.19-1.9.19c-1.12,0-2.14-.2-3.06-.61-.92-.41-1.72-.99-2.38-1.77-.66-.77-1.18-1.71-1.55-2.83s-.56-2.39-.56-3.81c0-1.34.18-2.56.53-3.67.35-1.11.87-2.06,1.54-2.86.68-.8,1.51-1.42,2.49-1.86.98-.44,2.11-.66,3.38-.66,1.14,0,2.16.18,3.04.55.89.36,1.66.86,2.32,1.48l-.44.6Z"/>
        <path class="cls-5" d="m612.33,187.66c-.35,0-.57-.16-.65-.49l-.25-2.24c-.48.47-.96.89-1.44,1.27-.48.38-.97.7-1.49.95-.52.26-1.08.46-1.68.59-.6.13-1.26.2-1.98.2-.6,0-1.18-.09-1.75-.26-.56-.18-1.07-.45-1.5-.81-.44-.36-.79-.83-1.05-1.4-.26-.57-.4-1.26-.4-2.06,0-.74.21-1.43.64-2.06.42-.64,1.09-1.19,1.99-1.66s2.06-.85,3.48-1.13c1.42-.28,3.12-.45,5.11-.49v-1.84c0-1.62-.35-2.87-1.05-3.75-.7-.88-1.74-1.32-3.12-1.32-.85,0-1.57.12-2.16.35-.59.24-1.1.49-1.51.78-.41.28-.75.54-1.01.78-.26.23-.48.35-.65.35-.24,0-.41-.11-.53-.32l-.3-.51c.92-.92,1.88-1.61,2.89-2.08,1.01-.47,2.16-.71,3.44-.71.94,0,1.76.15,2.47.45.71.3,1.29.73,1.76,1.29.47.56.82,1.24,1.05,2.03.23.79.35,1.68.35,2.66v11.44h-.67Zm-7.06-.93c.68,0,1.31-.07,1.88-.22.57-.15,1.1-.35,1.59-.62.49-.26.94-.58,1.37-.94.42-.36.84-.76,1.25-1.18v-4.57c-1.67.05-3.11.17-4.32.38s-2.2.49-2.98.84c-.78.35-1.36.77-1.73,1.26-.37.49-.56,1.05-.56,1.67,0,.59.1,1.1.29,1.53.19.43.45.78.77,1.06.32.28.69.48,1.11.61.42.13.86.19,1.32.19Z"/>
        <path class="cls-5" d="m629.86,172.45c-.06.06-.12.11-.17.15s-.13.06-.22.06c-.12,0-.28-.08-.49-.24s-.48-.33-.82-.52c-.34-.19-.77-.36-1.28-.52-.51-.16-1.13-.24-1.86-.24-1.01,0-1.91.18-2.69.54-.78.36-1.44.87-1.98,1.54s-.94,1.48-1.23,2.44c-.28.95-.42,2.02-.42,3.21s.14,2.33.43,3.28.7,1.76,1.23,2.41c.53.65,1.17,1.15,1.92,1.49.75.34,1.59.51,2.51.51.85,0,1.56-.1,2.13-.3.57-.2,1.04-.42,1.41-.65.37-.23.66-.45.88-.65.22-.2.39-.3.52-.3.15,0,.27.06.35.18l.46.57c-.27.35-.61.68-1.02.99-.41.31-.88.57-1.39.79-.52.22-1.08.4-1.69.52s-1.24.19-1.9.19c-1.12,0-2.14-.2-3.06-.61-.92-.41-1.72-.99-2.38-1.77-.66-.77-1.18-1.71-1.55-2.83s-.56-2.39-.56-3.81c0-1.34.18-2.56.53-3.67.35-1.11.87-2.06,1.54-2.86.68-.8,1.51-1.42,2.49-1.86.98-.44,2.11-.66,3.38-.66,1.14,0,2.16.18,3.04.55.89.36,1.66.86,2.32,1.48l-.44.6Z"/>
        <path class="cls-5" d="m637.27,164.05c0,.21-.04.41-.13.59-.09.18-.2.34-.34.49-.14.14-.31.25-.49.34s-.39.12-.6.12-.41-.04-.6-.12-.35-.19-.49-.34c-.14-.14-.25-.3-.34-.49-.08-.18-.12-.38-.12-.59s.04-.42.12-.61.19-.36.34-.5c.14-.14.31-.25.49-.34s.39-.12.6-.12.41.04.6.12.35.19.49.34c.14.14.26.31.34.5.09.19.13.4.13.61Zm-.74,6.05v17.56h-1.68v-17.56h1.68Z"/>
        <path class="cls-5" d="m649.43,169.82c1.26,0,2.39.22,3.38.64.99.43,1.83,1.04,2.51,1.83s1.2,1.74,1.56,2.85c.36,1.11.54,2.36.54,3.73s-.18,2.62-.54,3.72c-.36,1.11-.88,2.05-1.56,2.84s-1.52,1.39-2.51,1.82-2.12.63-3.38.63-2.39-.21-3.38-.63-1.84-1.03-2.52-1.82-1.21-1.74-1.57-2.84c-.36-1.11-.54-2.35-.54-3.72s.18-2.62.54-3.73c.36-1.11.88-2.06,1.57-2.85s1.53-1.4,2.52-1.83c.99-.43,2.12-.64,3.38-.64Zm0,16.75c1.05,0,1.96-.18,2.74-.54.78-.36,1.44-.87,1.96-1.54.52-.67.91-1.48,1.17-2.43s.39-2.01.39-3.19-.13-2.22-.39-3.18-.65-1.77-1.17-2.44c-.52-.68-1.18-1.2-1.96-1.56-.78-.36-1.7-.55-2.74-.55s-1.96.18-2.74.55-1.44.89-1.96,1.56c-.52.68-.92,1.49-1.18,2.44s-.4,2.01-.4,3.18.13,2.24.4,3.19.66,1.76,1.18,2.43c.52.67,1.18,1.19,1.96,1.54s1.7.54,2.74.54Z"/>
        <path class="cls-5" d="m661.84,187.66v-17.56h.92c.31,0,.48.15.53.44l.16,2.65c.8-1.01,1.73-1.83,2.8-2.45,1.06-.62,2.25-.93,3.56-.93.96,0,1.81.15,2.55.46.74.31,1.34.75,1.83,1.32s.85,1.27,1.09,2.08.37,1.73.37,2.75v11.23h-1.68v-11.23c0-1.65-.38-2.94-1.13-3.87-.75-.93-1.91-1.4-3.46-1.4-1.15,0-2.22.3-3.21.89-.99.59-1.87,1.41-2.65,2.44v13.17h-1.68Z"/>
        <path class="cls-5" d="m687.55,169.82c.99,0,1.9.17,2.74.51s1.57.84,2.19,1.49c.62.65,1.1,1.46,1.45,2.41s.52,2.05.52,3.28c0,.26-.04.44-.11.53-.08.09-.2.14-.36.14h-12.67v.34c0,1.32.15,2.48.46,3.48.31,1,.74,1.84,1.31,2.52.56.68,1.25,1.19,2.05,1.53.8.34,1.69.51,2.68.51.88,0,1.65-.1,2.29-.29.65-.19,1.19-.41,1.63-.65s.79-.46,1.05-.65.45-.29.56-.29c.15,0,.27.06.35.18l.46.57c-.28.35-.66.68-1.12.99-.47.31-.98.57-1.55.78-.57.22-1.18.39-1.84.52-.65.13-1.31.19-1.97.19-1.2,0-2.29-.21-3.28-.63-.99-.42-1.84-1.03-2.54-1.83-.71-.8-1.26-1.78-1.64-2.94s-.58-2.49-.58-3.98c0-1.26.18-2.42.54-3.49.36-1.06.88-1.98,1.55-2.75.68-.77,1.51-1.37,2.49-1.81.98-.44,2.1-.65,3.34-.65Zm.03,1.25c-.91,0-1.72.14-2.43.42s-1.34.69-1.86,1.22c-.52.53-.95,1.17-1.27,1.91-.32.74-.54,1.57-.64,2.49h11.56c0-.94-.13-1.79-.39-2.53s-.62-1.38-1.09-1.9c-.47-.52-1.03-.91-1.69-1.19-.66-.28-1.39-.42-2.18-.42Z"/>
        <path class="cls-5" d="m708.64,172.29c-.08.16-.21.25-.39.25-.13,0-.3-.07-.5-.22-.21-.15-.48-.31-.81-.49-.34-.18-.75-.35-1.24-.49-.49-.15-1.09-.22-1.79-.22-.64,0-1.22.09-1.74.27-.52.18-.97.43-1.34.73s-.66.66-.86,1.06c-.21.4-.31.83-.31,1.28,0,.55.14,1.01.42,1.37.28.36.65.67,1.11.93s.98.48,1.56.67,1.18.38,1.79.56,1.21.4,1.79.63c.58.23,1.1.51,1.56.86s.83.76,1.11,1.25c.28.49.42,1.09.42,1.8,0,.77-.14,1.48-.41,2.14-.28.66-.68,1.23-1.2,1.71-.52.48-1.17.86-1.93,1.15-.76.28-1.64.42-2.61.42-1.24,0-2.3-.2-3.19-.59-.89-.39-1.69-.91-2.4-1.54l.41-.6c.06-.09.12-.16.19-.21.07-.05.17-.07.3-.07.15,0,.34.09.56.28.22.19.51.39.87.61.36.22.81.42,1.34.61s1.2.28,1.99.28c.74,0,1.39-.1,1.96-.31.56-.21,1.04-.49,1.41-.84.38-.35.66-.77.86-1.24.19-.48.29-.98.29-1.51,0-.59-.14-1.08-.42-1.46-.28-.39-.65-.72-1.11-.99-.46-.27-.98-.5-1.56-.69-.58-.19-1.18-.38-1.8-.56-.62-.19-1.22-.39-1.8-.62-.58-.22-1.1-.51-1.56-.85-.46-.34-.83-.76-1.11-1.24-.28-.49-.42-1.1-.42-1.83,0-.62.14-1.22.41-1.8.27-.58.66-1.08,1.16-1.52.5-.44,1.11-.78,1.83-1.04s1.52-.39,2.42-.39c1.07,0,2.02.16,2.85.47.83.31,1.59.78,2.29,1.42l-.37.58Z"/>
      </g>
    </g>
  </g>
</svg>